<?xml version="1.0" encoding="utf-8"?>
<!-- Generator: Adobe Illustrator 22.1.0, SVG Export Plug-In . SVG Version: 6.00 Build 0)  -->
<svg version="1.1" id="Layer_1" xmlns="http://www.w3.org/2000/svg" xmlns:xlink="http://www.w3.org/1999/xlink" x="0px" y="0px"
	 viewBox="0 0 41.7 39.1" style="enable-background:new 0 0 41.7 39.1;" xml:space="preserve">
<style type="text/css">
	.st0{fill:#FAEE00;}
	.st1{fill:#FFB51E;}
	.st2{fill:#FF4A40;}
	.st3{fill:#1093FF;}
</style>
<g>
	<g>
		<g>
			<path class="st0" d="M31.5,10.6c0,2.8-1.1,5.4-2.9,7.3l-0.2,0.2l-4-4v-3.5c0-1-0.4-1.9-1-2.5s-1.5-1-2.5-1c-1,0-1.9,0.4-2.5,1
				s-1,1.5-1,2.5v3.5l-4,4L13,17.8l0,0c-1.7-1.9-2.8-4.4-2.8-7.1s1-5.3,2.8-7.2l0.2-0.2l0.2-0.2l0.4-0.3C15.6,1,18.1,0,20.8,0
				c2.9,0,5.6,1.2,7.5,3.1C30.3,5,31.5,7.7,31.5,10.6z"/>
		</g>
	</g>
	<g>
		<g>
			<path class="st1" d="M20.9,31.2l0,0.1c-0.7,2.6-2.4,4.9-4.9,6.3c-2.5,1.5-5.4,1.8-8,1.1l0,0c-2.6-0.7-5-2.4-6.5-5
				c-1.4-2.5-1.8-5.3-1.1-7.9l0-0.2l0-0.1c0.7-2.6,2.4-4.9,4.9-6.3c2.5-1.5,5.4-1.8,8-1.1l0,0l-1.5,5.4l-3.1,1.8
				c-0.8,0.5-1.4,1.3-1.6,2.2c-0.2,0.9-0.1,1.8,0.3,2.7c0.5,0.8,1.3,1.4,2.2,1.6c0.9,0.2,1.8,0.1,2.7-0.3l3.1-1.8L20.9,31.2z"/>
		</g>
	</g>
	<g>
		<g>
			<path class="st2" d="M40.3,33.7c-1.5,2.5-3.8,4.2-6.5,4.9c0,0,0,0-0.1,0c-2.6,0.7-5.5,0.4-8-1.1c-2.5-1.4-4.2-3.7-4.9-6.2
				l-0.1-0.2l5.4-1.5l3.1,1.8c0.9,0.5,1.8,0.6,2.7,0.3c0.9-0.2,1.7-0.8,2.2-1.6c0.5-0.9,0.6-1.8,0.3-2.7c-0.2-0.9-0.8-1.7-1.6-2.2
				l-3.1-1.8l-1.5-5.4l0,0c2.6-0.7,5.5-0.4,8,1.1c2.5,1.5,4.2,3.8,5,6.5l0,0C42.1,28.3,41.8,31.2,40.3,33.7z"/>
			<path class="st2" d="M33.9,38.7L33.9,38.7L33.9,38.7C33.8,38.7,33.9,38.7,33.9,38.7z"/>
		</g>
	</g>
</g>
<polygon class="st3" points="16.3,19.9 16.3,25.1 20.8,27.7 25.3,25.1 25.3,19.9 20.8,17.3 "/>
</svg>
